<svg width="229" height="40" viewBox="0 0 229 40" fill="none" xmlns="http://www.w3.org/2000/svg">
<g clip-path="url(#clip0_3_19)">
<g clip-path="url(#clip1_3_19)">
<path d="M17.2991 0.44176C18.3763 0.0542644 19.5543 0.0542644 20.6393 0.44176L35.5191 5.7582C37.4876 6.46344 38.8051 8.33117 38.8051 10.4314V29.2482C38.8051 31.3407 37.4876 33.2161 35.5114 33.9214L20.6316 39.2378C19.5543 39.6253 18.3763 39.6253 17.2913 39.2378L2.41151 33.9214C0.443035 33.2161 -0.874451 31.3484 -0.874451 29.2482V10.4314C-0.874451 8.33892 0.443035 6.46344 2.41926 5.7582L17.2991 0.44176ZM18.9653 5.11496L5.50373 9.9199L18.9653 14.7249L32.4269 9.9199L18.9653 5.11496ZM21.4453 33.6811L33.8452 29.2559V14.6861L21.4453 19.1113V33.6811Z" fill="#282828"/>
</g>
</g>
<path d="M75.352 15.0242C75.2518 14.0866 74.8295 13.3565 74.0851 12.8341C73.348 12.3116 72.3889 12.0504 71.208 12.0504C70.3777 12.0504 69.6656 12.1756 69.0715 12.4261C68.4775 12.6766 68.023 13.0166 67.7081 13.446C67.3932 13.8754 67.2321 14.3657 67.225 14.9168C67.225 15.3749 67.3287 15.7721 67.5363 16.1085C67.751 16.4449 68.0409 16.7312 68.4059 16.9674C68.7709 17.1964 69.1753 17.3896 69.6191 17.5471C70.0628 17.7046 70.5101 17.837 70.961 17.9443L73.0223 18.4596C73.8525 18.6529 74.6506 18.9141 75.4164 19.2434C76.1894 19.5726 76.88 19.9877 77.4884 20.4887C78.1039 20.9897 78.5906 21.5945 78.9485 22.3031C79.3063 23.0116 79.4853 23.8419 79.4853 24.7938C79.4853 26.0821 79.156 27.2165 78.4976 28.197C77.8391 29.1704 76.8872 29.9326 75.6418 30.4837C74.4036 31.0277 72.9042 31.2997 71.1435 31.2997C69.433 31.2997 67.9478 31.0349 66.6882 30.5052C65.4357 29.9756 64.4551 29.2026 63.7466 28.1863C63.0452 27.17 62.6658 25.9318 62.6086 24.4717H66.5271C66.5844 25.2375 66.8206 25.8745 67.2357 26.3827C67.6508 26.8908 68.1912 27.2702 68.8568 27.5207C69.5296 27.7712 70.2811 27.8964 71.1113 27.8964C71.9774 27.8964 72.736 27.7676 73.3873 27.5099C74.0458 27.2451 74.5611 26.8801 74.9333 26.4149C75.3055 25.9425 75.4951 25.3914 75.5023 24.7616C75.4951 24.189 75.3269 23.7166 74.9977 23.3444C74.6685 22.9651 74.2068 22.6502 73.6128 22.3997C73.0259 22.142 72.3388 21.913 71.5515 21.7126L69.0501 21.0684C67.2393 20.6032 65.8078 19.8982 64.7557 18.9535C63.7108 18.0016 63.1883 16.7383 63.1883 15.1637C63.1883 13.8683 63.539 12.7339 64.2404 11.7605C64.949 10.7871 65.9116 10.032 67.1283 9.49523C68.3451 8.95129 69.7228 8.67931 71.2616 8.67931C72.8219 8.67931 74.1889 8.95129 75.3627 9.49523C76.5436 10.032 77.4705 10.78 78.1433 11.739C78.8161 12.6909 79.1632 13.786 79.1847 15.0242H75.352ZM90.0574 31.2889C88.447 31.2889 87.0513 30.9347 85.8704 30.2261C84.6894 29.5175 83.7733 28.5263 83.122 27.2523C82.4779 25.9783 82.1558 24.4896 82.1558 22.7862C82.1558 21.0828 82.4779 19.5905 83.122 18.3093C83.7733 17.0282 84.6894 16.0333 85.8704 15.3248C87.0513 14.6162 88.447 14.2619 90.0574 14.2619C91.6677 14.2619 93.0634 14.6162 94.2443 15.3248C95.4253 16.0333 96.3378 17.0282 96.9819 18.3093C97.6333 19.5905 97.9589 21.0828 97.9589 22.7862C97.9589 24.4896 97.6333 25.9783 96.9819 27.2523C96.3378 28.5263 95.4253 29.5175 94.2443 30.2261C93.0634 30.9347 91.6677 31.2889 90.0574 31.2889ZM90.0788 28.1755C90.952 28.1755 91.682 27.9358 92.2689 27.4562C92.8558 26.9696 93.2924 26.3183 93.5787 25.5023C93.8721 24.6864 94.0189 23.7774 94.0189 22.7754C94.0189 21.7663 93.8721 20.8537 93.5787 20.0378C93.2924 19.2147 92.8558 18.5598 92.2689 18.0731C91.682 17.5865 90.952 17.3431 90.0788 17.3431C89.1842 17.3431 88.4398 17.5865 87.8458 18.0731C87.2589 18.5598 86.8187 19.2147 86.5253 20.0378C86.239 20.8537 86.0958 21.7663 86.0958 22.7754C86.0958 23.7774 86.239 24.6864 86.5253 25.5023C86.8187 26.3183 87.2589 26.9696 87.8458 27.4562C88.4398 27.9358 89.1842 28.1755 90.0788 28.1755ZM111.768 24.0315V14.4767H115.654V30.9669H111.886V28.036H111.714C111.342 28.9593 110.73 29.7143 109.878 30.3012C109.034 30.8881 107.992 31.1816 106.754 31.1816C105.673 31.1816 104.718 30.9418 103.888 30.4623C103.065 29.9756 102.421 29.2706 101.955 28.3473C101.49 27.4169 101.257 26.2932 101.257 24.9763V14.4767H105.144V24.3751C105.144 25.42 105.43 26.2503 106.003 26.8658C106.575 27.4813 107.327 27.7891 108.257 27.7891C108.83 27.7891 109.384 27.6495 109.921 27.3704C110.458 27.0912 110.898 26.6761 111.242 26.125C111.592 25.5667 111.768 24.8689 111.768 24.0315ZM119.651 30.9669V14.4767H123.419V17.225H123.591C123.891 16.2731 124.407 15.5395 125.137 15.0242C125.874 14.5017 126.715 14.2405 127.66 14.2405C127.874 14.2405 128.114 14.2512 128.379 14.2727C128.651 14.287 128.876 14.312 129.055 14.3478V17.9228C128.891 17.8656 128.629 17.8155 128.271 17.7725C127.921 17.7224 127.581 17.6974 127.252 17.6974C126.543 17.6974 125.906 17.8513 125.341 18.159C124.782 18.4596 124.342 18.8783 124.02 19.4151C123.698 19.9519 123.537 20.571 123.537 21.2724V30.9669H119.651ZM138.151 31.2889C136.505 31.2889 135.091 30.9275 133.91 30.2046C132.737 29.4817 131.831 28.4833 131.194 27.2093C130.564 25.9282 130.25 24.4538 130.25 22.7862C130.25 21.1114 130.572 19.6334 131.216 18.3523C131.86 17.064 132.769 16.062 133.943 15.3463C135.124 14.6234 136.519 14.2619 138.13 14.2619C139.468 14.2619 140.653 14.5089 141.683 15.0027C142.721 15.4894 143.548 16.1801 144.163 17.0747C144.779 17.9622 145.129 19 145.215 20.1881H141.501C141.35 19.3937 140.993 18.7316 140.427 18.202C139.869 17.6652 139.121 17.3968 138.183 17.3968C137.389 17.3968 136.691 17.6115 136.09 18.0409C135.489 18.4632 135.02 19.0716 134.683 19.866C134.354 20.6605 134.19 21.6124 134.19 22.7218C134.19 23.8454 134.354 24.8117 134.683 25.6204C135.013 26.422 135.474 27.0411 136.068 27.4777C136.67 27.9072 137.375 28.1219 138.183 28.1219C138.756 28.1219 139.268 28.0145 139.719 27.7998C140.177 27.5779 140.56 27.2594 140.867 26.8443C141.175 26.4292 141.386 25.9246 141.501 25.3306H145.215C145.122 26.4972 144.779 27.5314 144.185 28.4332C143.591 29.3279 142.782 30.0293 141.758 30.5374C140.735 31.0384 139.532 31.2889 138.151 31.2889ZM155.707 31.2889C154.054 31.2889 152.626 30.9454 151.423 30.2583C150.228 29.564 149.308 28.5835 148.664 27.3167C148.02 26.0427 147.698 24.5433 147.698 22.8184C147.698 21.1221 148.02 19.6334 148.664 18.3523C149.315 17.064 150.224 16.062 151.391 15.3463C152.558 14.6234 153.928 14.2619 155.503 14.2619C156.519 14.2619 157.478 14.4266 158.38 14.7558C159.289 15.0779 160.091 15.5789 160.785 16.2588C161.486 16.9387 162.037 17.8048 162.438 18.8569C162.839 19.9018 163.039 21.1472 163.039 22.5929V23.7846H149.523V21.1651H159.314C159.307 20.4207 159.146 19.7587 158.831 19.1789C158.516 18.592 158.076 18.1304 157.51 17.794C156.952 17.4576 156.301 17.2894 155.557 17.2894C154.762 17.2894 154.064 17.4827 153.463 17.8692C152.862 18.2485 152.393 18.7495 152.057 19.3722C151.727 19.9877 151.559 20.6641 151.552 21.4013V23.688C151.552 24.647 151.727 25.4701 152.078 26.1572C152.429 26.8371 152.919 27.3596 153.549 27.7246C154.179 28.0825 154.916 28.2614 155.761 28.2614C156.326 28.2614 156.838 28.1827 157.296 28.0252C157.754 27.8606 158.151 27.6209 158.487 27.3059C158.824 26.991 159.078 26.601 159.25 26.1357L162.878 26.5437C162.649 27.5028 162.213 28.3402 161.569 29.0559C160.932 29.7644 160.116 30.3156 159.121 30.7092C158.126 31.0957 156.988 31.2889 155.707 31.2889ZM173.95 30.9669H166.499V8.97992H174.1C176.283 8.97992 178.158 9.42008 179.726 10.3004C181.3 11.1736 182.51 12.4297 183.354 14.0687C184.199 15.7077 184.621 17.6688 184.621 19.9519C184.621 22.2422 184.195 24.2105 183.343 25.8566C182.499 27.5028 181.279 28.766 179.683 29.6464C178.094 30.5267 176.183 30.9669 173.95 30.9669ZM170.482 27.5207H173.756C175.288 27.5207 176.566 27.2415 177.589 26.6833C178.613 26.1178 179.382 25.2769 179.897 24.1604C180.413 23.0367 180.67 21.6339 180.67 19.9519C180.67 18.27 180.413 16.8743 179.897 15.7649C179.382 14.6484 178.62 13.8146 177.611 13.2635C176.609 12.7052 175.363 12.4261 173.875 12.4261H170.482V27.5207ZM192.979 31.2997C191.934 31.2997 190.993 31.1136 190.155 30.7414C189.325 30.3621 188.667 29.8038 188.18 29.0666C187.7 28.3294 187.461 27.4205 187.461 26.3397C187.461 25.4093 187.632 24.6399 187.976 24.0315C188.32 23.4232 188.788 22.9365 189.382 22.5715C189.976 22.2064 190.646 21.9309 191.39 21.7448C192.141 21.5516 192.918 21.412 193.72 21.3261C194.686 21.2259 195.47 21.1364 196.071 21.0577C196.672 20.9718 197.109 20.843 197.381 20.6712C197.66 20.4923 197.799 20.2167 197.799 19.8446V19.7801C197.799 18.9714 197.56 18.3451 197.08 17.9014C196.6 17.4576 195.91 17.2358 195.008 17.2358C194.056 17.2358 193.301 17.4433 192.743 17.8584C192.192 18.2735 191.819 18.7638 191.626 19.3292L187.997 18.8139C188.284 17.8119 188.756 16.9745 189.415 16.3017C190.073 15.6218 190.878 15.1136 191.83 14.7773C192.782 14.4337 193.834 14.2619 194.986 14.2619C195.781 14.2619 196.572 14.355 197.359 14.5411C198.146 14.7272 198.866 15.0349 199.517 15.4643C200.168 15.8866 200.691 16.4628 201.084 17.1928C201.485 17.9228 201.686 18.8354 201.686 19.9304V30.9669H197.95V28.7016H197.821C197.585 29.1597 197.252 29.5891 196.822 29.9899C196.4 30.3835 195.867 30.702 195.223 30.9454C194.586 31.1816 193.838 31.2997 192.979 31.2997ZM193.988 28.4439C194.768 28.4439 195.445 28.2901 196.017 27.9823C196.59 27.6674 197.03 27.2523 197.338 26.7369C197.653 26.2216 197.81 25.6598 197.81 25.0514V23.1082C197.688 23.2084 197.481 23.3015 197.187 23.3874C196.901 23.4733 196.579 23.5484 196.221 23.6128C195.863 23.6772 195.509 23.7345 195.158 23.7846C194.808 23.8347 194.503 23.8776 194.246 23.9134C193.666 23.9922 193.147 24.121 192.689 24.2999C192.231 24.4788 191.87 24.7294 191.605 25.0514C191.34 25.3663 191.207 25.7743 191.207 26.2753C191.207 26.991 191.469 27.5314 191.991 27.8964C192.514 28.2614 193.179 28.4439 193.988 28.4439ZM205.593 30.9669V14.4767H209.362V17.225H209.534C209.834 16.2731 210.349 15.5395 211.079 15.0242C211.817 14.5017 212.658 14.2405 213.602 14.2405C213.817 14.2405 214.057 14.2512 214.322 14.2727C214.594 14.287 214.819 14.312 214.998 14.3478V17.9228C214.833 17.8656 214.572 17.8155 214.214 17.7725C213.864 17.7224 213.524 17.6974 213.194 17.6974C212.486 17.6974 211.849 17.8513 211.283 18.159C210.725 18.4596 210.285 18.8783 209.963 19.4151C209.641 19.9519 209.48 20.571 209.48 21.2724V30.9669H205.593ZM226.7 14.4767V17.4827H217.22V14.4767H226.7ZM219.561 10.5259H223.447V26.0069C223.447 26.5294 223.526 26.9302 223.683 27.2093C223.848 27.4813 224.063 27.6674 224.327 27.7676C224.592 27.8678 224.886 27.9179 225.208 27.9179C225.451 27.9179 225.673 27.9 225.873 27.8642C226.081 27.8284 226.238 27.7962 226.346 27.7676L227.001 30.8058C226.793 30.8774 226.496 30.9561 226.11 31.042C225.73 31.1279 225.265 31.178 224.714 31.1923C223.741 31.2209 222.864 31.0742 222.084 30.7521C221.304 30.4229 220.684 29.9147 220.226 29.2277C219.775 28.5406 219.554 27.6817 219.561 26.6511V10.5259Z" fill="#282828"/>
<defs>
<clipPath id="clip0_3_19">
<rect width="37.9306" height="39.6796" fill="white"/>
</clipPath>
<clipPath id="clip1_3_19">
<path d="M-0.874451 0H38.8051V39.6796H-0.874451V0Z" fill="white"/>
</clipPath>
</defs>
</svg>
