<svg width="351" height="233" viewBox="0 0 351 233" fill="none" xmlns="http://www.w3.org/2000/svg">
<g clip-path="url(#clip0_0_1)">
<g clip-path="url(#clip1_0_1)">
<path d="M79.2991 0.44176C80.3763 0.0542644 81.5543 0.0542644 82.6393 0.44176L97.5191 5.7582C99.4876 6.46344 100.805 8.33117 100.805 10.4314V29.2482C100.805 31.3407 99.4876 33.2161 97.5114 33.9214L82.6316 39.2378C81.5543 39.6253 80.3763 39.6253 79.2913 39.2378L64.4115 33.9214C62.443 33.2161 61.1255 31.3484 61.1255 29.2482V10.4314C61.1255 8.33892 62.443 6.46344 64.4193 5.7582L79.2991 0.44176ZM80.9653 5.11496L67.5037 9.9199L80.9653 14.7249L94.4269 9.9199L80.9653 5.11496ZM83.4453 33.6811L95.8452 29.2559V14.6861L83.4453 19.1113V33.6811Z" fill="#282828"/>
</g>
</g>
<path d="M137.352 15.0242C137.252 14.0866 136.829 13.3565 136.085 12.8341C135.348 12.3116 134.389 12.0504 133.208 12.0504C132.378 12.0504 131.666 12.1756 131.072 12.4261C130.477 12.6766 130.023 13.0166 129.708 13.446C129.393 13.8754 129.232 14.3657 129.225 14.9168C129.225 15.3749 129.329 15.7721 129.536 16.1085C129.751 16.4449 130.041 16.7312 130.406 16.9674C130.771 17.1964 131.175 17.3896 131.619 17.5471C132.063 17.7046 132.51 17.837 132.961 17.9443L135.022 18.4596C135.853 18.6529 136.651 18.9141 137.416 19.2434C138.189 19.5726 138.88 19.9877 139.488 20.4887C140.104 20.9897 140.591 21.5945 140.948 22.3031C141.306 23.0116 141.485 23.8419 141.485 24.7938C141.485 26.0821 141.156 27.2165 140.498 28.197C139.839 29.1704 138.887 29.9326 137.642 30.4837C136.404 31.0277 134.904 31.2997 133.144 31.2997C131.433 31.2997 129.948 31.0349 128.688 30.5052C127.436 29.9756 126.455 29.2026 125.747 28.1863C125.045 27.17 124.666 25.9318 124.609 24.4717H128.527C128.584 25.2375 128.821 25.8745 129.236 26.3827C129.651 26.8908 130.191 27.2702 130.857 27.5207C131.53 27.7712 132.281 27.8964 133.111 27.8964C133.977 27.8964 134.736 27.7676 135.387 27.5099C136.046 27.2451 136.561 26.8801 136.933 26.4149C137.305 25.9425 137.495 25.3914 137.502 24.7616C137.495 24.189 137.327 23.7166 136.998 23.3444C136.668 22.9651 136.207 22.6502 135.613 22.3997C135.026 22.142 134.339 21.913 133.551 21.7126L131.05 21.0684C129.239 20.6032 127.808 19.8982 126.756 18.9535C125.711 18.0016 125.188 16.7383 125.188 15.1637C125.188 13.8683 125.539 12.7339 126.24 11.7605C126.949 10.7871 127.912 10.032 129.128 9.49523C130.345 8.95129 131.723 8.67931 133.262 8.67931C134.822 8.67931 136.189 8.95129 137.363 9.49523C138.544 10.032 139.471 10.78 140.143 11.739C140.816 12.6909 141.163 13.786 141.185 15.0242H137.352ZM152.057 31.2889C150.447 31.2889 149.051 30.9347 147.87 30.2261C146.689 29.5175 145.773 28.5263 145.122 27.2523C144.478 25.9783 144.156 24.4896 144.156 22.7862C144.156 21.0828 144.478 19.5905 145.122 18.3093C145.773 17.0282 146.689 16.0333 147.87 15.3248C149.051 14.6162 150.447 14.2619 152.057 14.2619C153.668 14.2619 155.063 14.6162 156.244 15.3248C157.425 16.0333 158.338 17.0282 158.982 18.3093C159.633 19.5905 159.959 21.0828 159.959 22.7862C159.959 24.4896 159.633 25.9783 158.982 27.2523C158.338 28.5263 157.425 29.5175 156.244 30.2261C155.063 30.9347 153.668 31.2889 152.057 31.2889ZM152.079 28.1755C152.952 28.1755 153.682 27.9358 154.269 27.4562C154.856 26.9696 155.292 26.3183 155.579 25.5023C155.872 24.6864 156.019 23.7774 156.019 22.7754C156.019 21.7663 155.872 20.8537 155.579 20.0378C155.292 19.2147 154.856 18.5598 154.269 18.0731C153.682 17.5865 152.952 17.3431 152.079 17.3431C151.184 17.3431 150.44 17.5865 149.846 18.0731C149.259 18.5598 148.819 19.2147 148.525 20.0378C148.239 20.8537 148.096 21.7663 148.096 22.7754C148.096 23.7774 148.239 24.6864 148.525 25.5023C148.819 26.3183 149.259 26.9696 149.846 27.4562C150.44 27.9358 151.184 28.1755 152.079 28.1755ZM173.768 24.0315V14.4767H177.654V30.9669H173.886V28.036H173.714C173.342 28.9593 172.73 29.7143 171.878 30.3012C171.034 30.8881 169.992 31.1816 168.754 31.1816C167.673 31.1816 166.718 30.9418 165.888 30.4623C165.065 29.9756 164.421 29.2706 163.955 28.3473C163.49 27.4169 163.257 26.2932 163.257 24.9763V14.4767H167.144V24.3751C167.144 25.42 167.43 26.2503 168.003 26.8658C168.575 27.4813 169.327 27.7891 170.257 27.7891C170.83 27.7891 171.384 27.6495 171.921 27.3704C172.458 27.0912 172.898 26.6761 173.242 26.125C173.592 25.5667 173.768 24.8689 173.768 24.0315ZM181.651 30.9669V14.4767H185.419V17.225H185.591C185.891 16.2731 186.407 15.5395 187.137 15.0242C187.874 14.5017 188.715 14.2405 189.66 14.2405C189.874 14.2405 190.114 14.2512 190.379 14.2727C190.651 14.287 190.876 14.312 191.055 14.3478V17.9228C190.891 17.8656 190.629 17.8155 190.271 17.7725C189.921 17.7224 189.581 17.6974 189.252 17.6974C188.543 17.6974 187.906 17.8513 187.341 18.159C186.782 18.4596 186.342 18.8783 186.02 19.4151C185.698 19.9519 185.537 20.571 185.537 21.2724V30.9669H181.651ZM200.151 31.2889C198.505 31.2889 197.091 30.9275 195.91 30.2046C194.737 29.4817 193.831 28.4833 193.194 27.2093C192.564 25.9282 192.25 24.4538 192.25 22.7862C192.25 21.1114 192.572 19.6334 193.216 18.3523C193.86 17.064 194.769 16.062 195.943 15.3463C197.124 14.6234 198.519 14.2619 200.13 14.2619C201.468 14.2619 202.653 14.5089 203.683 15.0027C204.721 15.4894 205.548 16.1801 206.163 17.0747C206.779 17.9622 207.129 19 207.215 20.1881H203.501C203.35 19.3937 202.993 18.7316 202.427 18.202C201.869 17.6652 201.121 17.3968 200.183 17.3968C199.389 17.3968 198.691 17.6115 198.09 18.0409C197.489 18.4632 197.02 19.0716 196.683 19.866C196.354 20.6605 196.19 21.6124 196.19 22.7218C196.19 23.8454 196.354 24.8117 196.683 25.6204C197.013 26.422 197.474 27.0411 198.068 27.4777C198.67 27.9072 199.375 28.1219 200.183 28.1219C200.756 28.1219 201.268 28.0145 201.719 27.7998C202.177 27.5779 202.56 27.2594 202.867 26.8443C203.175 26.4292 203.386 25.9246 203.501 25.3306H207.215C207.122 26.4972 206.779 27.5314 206.185 28.4332C205.591 29.3279 204.782 30.0293 203.758 30.5374C202.735 31.0384 201.532 31.2889 200.151 31.2889ZM217.707 31.2889C216.054 31.2889 214.626 30.9454 213.423 30.2583C212.228 29.564 211.308 28.5835 210.664 27.3167C210.02 26.0427 209.698 24.5433 209.698 22.8184C209.698 21.1221 210.02 19.6334 210.664 18.3523C211.315 17.064 212.224 16.062 213.391 15.3463C214.558 14.6234 215.928 14.2619 217.503 14.2619C218.519 14.2619 219.478 14.4266 220.38 14.7558C221.289 15.0779 222.091 15.5789 222.785 16.2588C223.486 16.9387 224.037 17.8048 224.438 18.8569C224.839 19.9018 225.039 21.1472 225.039 22.5929V23.7846H211.523V21.1651H221.314C221.307 20.4207 221.146 19.7587 220.831 19.1789C220.516 18.592 220.076 18.1304 219.51 17.794C218.952 17.4576 218.301 17.2894 217.557 17.2894C216.762 17.2894 216.064 17.4827 215.463 17.8692C214.862 18.2485 214.393 18.7495 214.057 19.3722C213.727 19.9877 213.559 20.6641 213.552 21.4013V23.688C213.552 24.647 213.727 25.4701 214.078 26.1572C214.429 26.8371 214.919 27.3596 215.549 27.7246C216.179 28.0825 216.916 28.2614 217.761 28.2614C218.326 28.2614 218.838 28.1827 219.296 28.0252C219.754 27.8606 220.151 27.6209 220.487 27.3059C220.824 26.991 221.078 26.601 221.25 26.1357L224.878 26.5437C224.649 27.5028 224.213 28.3402 223.569 29.0559C222.932 29.7644 222.116 30.3156 221.121 30.7092C220.126 31.0957 218.988 31.2889 217.707 31.2889ZM235.95 30.9669H228.499V8.97992H236.1C238.283 8.97992 240.158 9.42008 241.726 10.3004C243.3 11.1736 244.51 12.4297 245.354 14.0687C246.199 15.7077 246.621 17.6688 246.621 19.9519C246.621 22.2422 246.195 24.2105 245.343 25.8566C244.499 27.5028 243.279 28.766 241.683 29.6464C240.094 30.5267 238.183 30.9669 235.95 30.9669ZM232.482 27.5207H235.756C237.288 27.5207 238.566 27.2415 239.589 26.6833C240.613 26.1178 241.382 25.2769 241.897 24.1604C242.413 23.0367 242.67 21.6339 242.67 19.9519C242.67 18.27 242.413 16.8743 241.897 15.7649C241.382 14.6484 240.62 13.8146 239.611 13.2635C238.609 12.7052 237.363 12.4261 235.875 12.4261H232.482V27.5207ZM254.979 31.2997C253.934 31.2997 252.993 31.1136 252.155 30.7414C251.325 30.3621 250.667 29.8038 250.18 29.0666C249.7 28.3294 249.461 27.4205 249.461 26.3397C249.461 25.4093 249.632 24.6399 249.976 24.0315C250.32 23.4232 250.788 22.9365 251.382 22.5715C251.976 22.2064 252.646 21.9309 253.39 21.7448C254.141 21.5516 254.918 21.412 255.72 21.3261C256.686 21.2259 257.47 21.1364 258.071 21.0577C258.672 20.9718 259.109 20.843 259.381 20.6712C259.66 20.4923 259.799 20.2167 259.799 19.8446V19.7801C259.799 18.9714 259.56 18.3451 259.08 17.9014C258.6 17.4576 257.91 17.2358 257.008 17.2358C256.056 17.2358 255.301 17.4433 254.743 17.8584C254.192 18.2735 253.819 18.7638 253.626 19.3292L249.997 18.8139C250.284 17.8119 250.756 16.9745 251.415 16.3017C252.073 15.6218 252.878 15.1136 253.83 14.7773C254.782 14.4337 255.834 14.2619 256.986 14.2619C257.781 14.2619 258.572 14.355 259.359 14.5411C260.146 14.7272 260.866 15.0349 261.517 15.4643C262.168 15.8866 262.691 16.4628 263.084 17.1928C263.485 17.9228 263.686 18.8354 263.686 19.9304V30.9669H259.95V28.7016H259.821C259.585 29.1597 259.252 29.5891 258.822 29.9899C258.4 30.3835 257.867 30.702 257.223 30.9454C256.586 31.1816 255.838 31.2997 254.979 31.2997ZM255.988 28.4439C256.768 28.4439 257.445 28.2901 258.017 27.9823C258.59 27.6674 259.03 27.2523 259.338 26.7369C259.653 26.2216 259.81 25.6598 259.81 25.0514V23.1082C259.688 23.2084 259.481 23.3015 259.187 23.3874C258.901 23.4733 258.579 23.5484 258.221 23.6128C257.863 23.6772 257.509 23.7345 257.158 23.7846C256.808 23.8347 256.503 23.8776 256.246 23.9134C255.666 23.9922 255.147 24.121 254.689 24.2999C254.231 24.4788 253.87 24.7294 253.605 25.0514C253.34 25.3663 253.207 25.7743 253.207 26.2753C253.207 26.991 253.469 27.5314 253.991 27.8964C254.514 28.2614 255.179 28.4439 255.988 28.4439ZM267.593 30.9669V14.4767H271.362V17.225H271.534C271.834 16.2731 272.349 15.5395 273.079 15.0242C273.817 14.5017 274.658 14.2405 275.602 14.2405C275.817 14.2405 276.057 14.2512 276.322 14.2727C276.594 14.287 276.819 14.312 276.998 14.3478V17.9228C276.833 17.8656 276.572 17.8155 276.214 17.7725C275.864 17.7224 275.524 17.6974 275.194 17.6974C274.486 17.6974 273.849 17.8513 273.283 18.159C272.725 18.4596 272.285 18.8783 271.963 19.4151C271.641 19.9519 271.48 20.571 271.48 21.2724V30.9669H267.593ZM288.7 14.4767V17.4827H279.22V14.4767H288.7ZM281.561 10.5259H285.447V26.0069C285.447 26.5294 285.526 26.9302 285.683 27.2093C285.848 27.4813 286.063 27.6674 286.327 27.7676C286.592 27.8678 286.886 27.9179 287.208 27.9179C287.451 27.9179 287.673 27.9 287.873 27.8642C288.081 27.8284 288.238 27.7962 288.346 27.7676L289.001 30.8058C288.793 30.8774 288.496 30.9561 288.11 31.042C287.73 31.1279 287.265 31.178 286.714 31.1923C285.741 31.2209 284.864 31.0742 284.084 30.7521C283.304 30.4229 282.684 29.9147 282.226 29.2277C281.775 28.5406 281.554 27.6817 281.561 26.6511V10.5259Z" fill="#282828"/>
<path d="M109.22 186L103.94 163.664H107.62L109.892 174.416L111.46 181.84H111.556L113.348 174.416L116.004 163.664H120.036L122.66 174.416L124.42 181.808H124.516L126.148 174.416L128.484 163.664H132.036L126.532 186H122.468L119.62 174.448L117.956 167.664H117.892L116.196 174.448L113.284 186H109.22ZM141.227 186.384C140.032 186.384 138.966 186.181 138.027 185.776C137.088 185.371 136.288 184.795 135.627 184.048C134.966 183.28 134.454 182.363 134.091 181.296C133.75 180.208 133.579 179.003 133.579 177.68C133.579 176.357 133.75 175.163 134.091 174.096C134.454 173.008 134.966 172.091 135.627 171.344C136.288 170.576 137.088 169.989 138.027 169.584C138.966 169.179 140.032 168.976 141.227 168.976C142.443 168.976 143.51 169.189 144.427 169.616C145.366 170.043 146.144 170.64 146.763 171.408C147.382 172.155 147.84 173.029 148.139 174.032C148.459 175.035 148.619 176.112 148.619 177.264V178.576H137.195V179.12C137.195 180.4 137.568 181.456 138.315 182.288C139.083 183.099 140.171 183.504 141.579 183.504C142.603 183.504 143.467 183.28 144.171 182.832C144.875 182.384 145.472 181.776 145.963 181.008L148.011 183.024C147.392 184.048 146.496 184.869 145.323 185.488C144.15 186.085 142.784 186.384 141.227 186.384ZM141.227 171.696C140.63 171.696 140.075 171.803 139.563 172.016C139.072 172.229 138.646 172.528 138.283 172.912C137.942 173.296 137.675 173.755 137.483 174.288C137.291 174.821 137.195 175.408 137.195 176.048V176.272H144.939V175.952C144.939 174.672 144.608 173.648 143.947 172.88C143.286 172.091 142.379 171.696 141.227 171.696ZM156.032 186C154.838 186 153.942 185.701 153.344 185.104C152.768 184.485 152.48 183.632 152.48 182.544V162.32H155.968V183.152H158.272V186H156.032ZM168.037 186.384C166.843 186.384 165.776 186.181 164.837 185.776C163.899 185.371 163.109 184.795 162.469 184.048C161.829 183.28 161.339 182.363 160.997 181.296C160.656 180.208 160.485 179.003 160.485 177.68C160.485 176.357 160.656 175.163 160.997 174.096C161.339 173.008 161.829 172.091 162.469 171.344C163.109 170.576 163.899 169.989 164.837 169.584C165.776 169.179 166.843 168.976 168.037 168.976C169.701 168.976 171.067 169.349 172.133 170.096C173.2 170.843 173.979 171.835 174.469 173.072L171.589 174.416C171.355 173.648 170.939 173.04 170.341 172.592C169.765 172.123 168.997 171.888 168.037 171.888C166.757 171.888 165.787 172.293 165.125 173.104C164.485 173.893 164.165 174.928 164.165 176.208V179.184C164.165 180.464 164.485 181.509 165.125 182.32C165.787 183.109 166.757 183.504 168.037 183.504C169.061 183.504 169.872 183.259 170.469 182.768C171.088 182.256 171.579 181.584 171.941 180.752L174.597 182.16C174.043 183.525 173.211 184.571 172.101 185.296C170.992 186.021 169.637 186.384 168.037 186.384ZM184.258 186.384C183.106 186.384 182.05 186.181 181.09 185.776C180.152 185.371 179.352 184.795 178.69 184.048C178.029 183.28 177.517 182.363 177.154 181.296C176.792 180.208 176.61 179.003 176.61 177.68C176.61 176.357 176.792 175.163 177.154 174.096C177.517 173.008 178.029 172.091 178.69 171.344C179.352 170.576 180.152 169.989 181.09 169.584C182.05 169.179 183.106 168.976 184.258 168.976C185.41 168.976 186.456 169.179 187.394 169.584C188.354 169.989 189.165 170.576 189.826 171.344C190.488 172.091 191 173.008 191.362 174.096C191.725 175.163 191.906 176.357 191.906 177.68C191.906 179.003 191.725 180.208 191.362 181.296C191 182.363 190.488 183.28 189.826 184.048C189.165 184.795 188.354 185.371 187.394 185.776C186.456 186.181 185.41 186.384 184.258 186.384ZM184.258 183.504C185.453 183.504 186.413 183.141 187.138 182.416C187.864 181.669 188.226 180.56 188.226 179.088V176.272C188.226 174.8 187.864 173.701 187.138 172.976C186.413 172.229 185.453 171.856 184.258 171.856C183.064 171.856 182.104 172.229 181.378 172.976C180.653 173.701 180.29 174.8 180.29 176.272V179.088C180.29 180.56 180.653 181.669 181.378 182.416C182.104 183.141 183.064 183.504 184.258 183.504ZM195.793 186V169.36H199.281V172.112H199.441C199.612 171.685 199.814 171.28 200.049 170.896C200.305 170.512 200.604 170.181 200.945 169.904C201.308 169.605 201.724 169.381 202.193 169.232C202.684 169.061 203.249 168.976 203.889 168.976C205.02 168.976 206.022 169.253 206.897 169.808C207.772 170.363 208.412 171.216 208.817 172.368H208.913C209.212 171.429 209.788 170.629 210.641 169.968C211.494 169.307 212.593 168.976 213.937 168.976C215.601 168.976 216.892 169.541 217.809 170.672C218.726 171.781 219.185 173.371 219.185 175.44V186H215.697V175.856C215.697 174.576 215.452 173.616 214.961 172.976C214.47 172.315 213.692 171.984 212.625 171.984C212.177 171.984 211.75 172.048 211.345 172.176C210.94 172.283 210.577 172.453 210.257 172.688C209.958 172.923 209.713 173.221 209.521 173.584C209.329 173.947 209.233 174.363 209.233 174.832V186H205.745V175.856C205.745 173.275 204.732 171.984 202.705 171.984C202.278 171.984 201.852 172.048 201.425 172.176C201.02 172.283 200.657 172.453 200.337 172.688C200.017 172.923 199.761 173.221 199.569 173.584C199.377 173.947 199.281 174.363 199.281 174.832V186H195.793ZM230.54 186.384C229.345 186.384 228.278 186.181 227.34 185.776C226.401 185.371 225.601 184.795 224.94 184.048C224.278 183.28 223.766 182.363 223.404 181.296C223.062 180.208 222.892 179.003 222.892 177.68C222.892 176.357 223.062 175.163 223.404 174.096C223.766 173.008 224.278 172.091 224.94 171.344C225.601 170.576 226.401 169.989 227.34 169.584C228.278 169.179 229.345 168.976 230.54 168.976C231.756 168.976 232.822 169.189 233.74 169.616C234.678 170.043 235.457 170.64 236.076 171.408C236.694 172.155 237.153 173.029 237.452 174.032C237.772 175.035 237.932 176.112 237.932 177.264V178.576H226.508V179.12C226.508 180.4 226.881 181.456 227.628 182.288C228.396 183.099 229.484 183.504 230.892 183.504C231.916 183.504 232.78 183.28 233.484 182.832C234.188 182.384 234.785 181.776 235.276 181.008L237.324 183.024C236.705 184.048 235.809 184.869 234.636 185.488C233.462 186.085 232.097 186.384 230.54 186.384ZM230.54 171.696C229.942 171.696 229.388 171.803 228.876 172.016C228.385 172.229 227.958 172.528 227.596 172.912C227.254 173.296 226.988 173.755 226.796 174.288C226.604 174.821 226.508 175.408 226.508 176.048V176.272H234.252V175.952C234.252 174.672 233.921 173.648 233.26 172.88C232.598 172.091 231.692 171.696 230.54 171.696ZM243.265 179.6L242.145 170.032V163.664H245.921V170.032L244.865 179.6H243.265ZM244.065 186.384C243.254 186.384 242.657 186.192 242.273 185.808C241.91 185.403 241.729 184.891 241.729 184.272V183.728C241.729 183.109 241.91 182.608 242.273 182.224C242.657 181.819 243.254 181.616 244.065 181.616C244.876 181.616 245.462 181.819 245.825 182.224C246.209 182.608 246.401 183.109 246.401 183.728V184.272C246.401 184.891 246.209 185.403 245.825 185.808C245.462 186.192 244.876 186.384 244.065 186.384ZM10.3681 206.864V226H6.75213V206.864H0.096125V203.664H17.0241V206.864H10.3681ZM24.7271 226.384C23.5751 226.384 22.5191 226.181 21.5591 225.776C20.6205 225.371 19.8205 224.795 19.1591 224.048C18.4978 223.28 17.9858 222.363 17.6231 221.296C17.2605 220.208 17.0791 219.003 17.0791 217.68C17.0791 216.357 17.2605 215.163 17.6231 214.096C17.9858 213.008 18.4978 212.091 19.1591 211.344C19.8205 210.576 20.6205 209.989 21.5591 209.584C22.5191 209.179 23.5751 208.976 24.7271 208.976C25.8791 208.976 26.9245 209.179 27.8631 209.584C28.8231 209.989 29.6338 210.576 30.2951 211.344C30.9565 212.091 31.4685 213.008 31.8311 214.096C32.1938 215.163 32.3751 216.357 32.3751 217.68C32.3751 219.003 32.1938 220.208 31.8311 221.296C31.4685 222.363 30.9565 223.28 30.2951 224.048C29.6338 224.795 28.8231 225.371 27.8631 225.776C26.9245 226.181 25.8791 226.384 24.7271 226.384ZM24.7271 223.504C25.9218 223.504 26.8818 223.141 27.6071 222.416C28.3325 221.669 28.6951 220.56 28.6951 219.088V216.272C28.6951 214.8 28.3325 213.701 27.6071 212.976C26.8818 212.229 25.9218 211.856 24.7271 211.856C23.5325 211.856 22.5725 212.229 21.8471 212.976C21.1218 213.701 20.7591 214.8 20.7591 216.272V219.088C20.7591 220.56 21.1218 221.669 21.8471 222.416C22.5725 223.141 23.5325 223.504 24.7271 223.504ZM50.2561 226.384C49.0615 226.384 47.9948 226.181 47.0561 225.776C46.1175 225.371 45.3281 224.795 44.6881 224.048C44.0481 223.28 43.5575 222.363 43.2161 221.296C42.8748 220.208 42.7041 219.003 42.7041 217.68C42.7041 216.357 42.8748 215.163 43.2161 214.096C43.5575 213.008 44.0481 212.091 44.6881 211.344C45.3281 210.576 46.1175 209.989 47.0561 209.584C47.9948 209.179 49.0615 208.976 50.2561 208.976C51.9201 208.976 53.2855 209.349 54.3521 210.096C55.4188 210.843 56.1975 211.835 56.6881 213.072L53.8081 214.416C53.5735 213.648 53.1575 213.04 52.5601 212.592C51.9841 212.123 51.2161 211.888 50.2561 211.888C48.9761 211.888 48.0055 212.293 47.3441 213.104C46.7041 213.893 46.3841 214.928 46.3841 216.208V219.184C46.3841 220.464 46.7041 221.509 47.3441 222.32C48.0055 223.109 48.9761 223.504 50.2561 223.504C51.2801 223.504 52.0908 223.259 52.6881 222.768C53.3068 222.256 53.7975 221.584 54.1601 220.752L56.8161 222.16C56.2615 223.525 55.4295 224.571 54.3201 225.296C53.2108 226.021 51.8561 226.384 50.2561 226.384ZM66.4771 226.384C65.3251 226.384 64.2691 226.181 63.3091 225.776C62.3705 225.371 61.5705 224.795 60.9091 224.048C60.2478 223.28 59.7358 222.363 59.3731 221.296C59.0105 220.208 58.8291 219.003 58.8291 217.68C58.8291 216.357 59.0105 215.163 59.3731 214.096C59.7358 213.008 60.2478 212.091 60.9091 211.344C61.5705 210.576 62.3705 209.989 63.3091 209.584C64.2691 209.179 65.3251 208.976 66.4771 208.976C67.6291 208.976 68.6745 209.179 69.6131 209.584C70.5731 209.989 71.3838 210.576 72.0451 211.344C72.7065 212.091 73.2185 213.008 73.5811 214.096C73.9438 215.163 74.1251 216.357 74.1251 217.68C74.1251 219.003 73.9438 220.208 73.5811 221.296C73.2185 222.363 72.7065 223.28 72.0451 224.048C71.3838 224.795 70.5731 225.371 69.6131 225.776C68.6745 226.181 67.6291 226.384 66.4771 226.384ZM66.4771 223.504C67.6718 223.504 68.6318 223.141 69.3571 222.416C70.0825 221.669 70.4451 220.56 70.4451 219.088V216.272C70.4451 214.8 70.0825 213.701 69.3571 212.976C68.6318 212.229 67.6718 211.856 66.4771 211.856C65.2825 211.856 64.3225 212.229 63.5971 212.976C62.8718 213.701 62.5091 214.8 62.5091 216.272V219.088C62.5091 220.56 62.8718 221.669 63.5971 222.416C64.3225 223.141 65.2825 223.504 66.4771 223.504ZM78.0116 226V209.36H81.4996V212.112H81.6596C82.0223 211.216 82.5663 210.469 83.2916 209.872C84.0383 209.275 85.0516 208.976 86.3316 208.976C88.0383 208.976 89.361 209.541 90.2996 210.672C91.2596 211.781 91.7396 213.371 91.7396 215.44V226H88.2516V215.888C88.2516 213.285 87.2063 211.984 85.1156 211.984C84.6676 211.984 84.2196 212.048 83.7716 212.176C83.345 212.283 82.961 212.453 82.6196 212.688C82.2783 212.923 82.001 213.221 81.7876 213.584C81.5956 213.947 81.4996 214.373 81.4996 214.864V226H78.0116ZM101.182 226C99.9661 226 99.0488 225.691 98.4301 225.072C97.8115 224.432 97.5021 223.536 97.5021 222.384V212.208H94.9101V209.36H96.3181C96.8941 209.36 97.2888 209.232 97.5021 208.976C97.7368 208.72 97.8541 208.304 97.8541 207.728V204.816H100.99V209.36H104.478V212.208H100.99V223.152H104.222V226H101.182ZM110.022 206.384C109.296 206.384 108.763 206.213 108.422 205.872C108.102 205.531 107.942 205.093 107.942 204.56V204.016C107.942 203.483 108.102 203.045 108.422 202.704C108.763 202.363 109.296 202.192 110.022 202.192C110.747 202.192 111.27 202.363 111.59 202.704C111.91 203.045 112.07 203.483 112.07 204.016V204.56C112.07 205.093 111.91 205.531 111.59 205.872C111.27 206.213 110.747 206.384 110.022 206.384ZM108.262 209.36H111.75V226H108.262V209.36ZM116.73 226V209.36H120.218V212.112H120.378C120.741 211.216 121.285 210.469 122.01 209.872C122.757 209.275 123.77 208.976 125.05 208.976C126.757 208.976 128.08 209.541 129.018 210.672C129.978 211.781 130.458 213.371 130.458 215.44V226H126.97V215.888C126.97 213.285 125.925 211.984 123.834 211.984C123.386 211.984 122.938 212.048 122.49 212.176C122.064 212.283 121.68 212.453 121.338 212.688C120.997 212.923 120.72 213.221 120.506 213.584C120.314 213.947 120.218 214.373 120.218 214.864V226H116.73ZM145.373 223.248H145.245C145.096 223.653 144.893 224.048 144.637 224.432C144.402 224.816 144.093 225.157 143.709 225.456C143.346 225.733 142.898 225.957 142.365 226.128C141.853 226.299 141.256 226.384 140.573 226.384C138.845 226.384 137.501 225.829 136.541 224.72C135.602 223.611 135.133 222.021 135.133 219.952V209.36H138.621V219.504C138.621 222.085 139.688 223.376 141.821 223.376C142.269 223.376 142.706 223.323 143.133 223.216C143.56 223.088 143.933 222.907 144.253 222.672C144.594 222.437 144.861 222.139 145.053 221.776C145.266 221.413 145.373 220.987 145.373 220.496V209.36H148.861V226H145.373V223.248ZM160.383 226.384C159.189 226.384 158.122 226.181 157.183 225.776C156.245 225.371 155.445 224.795 154.783 224.048C154.122 223.28 153.61 222.363 153.247 221.296C152.906 220.208 152.735 219.003 152.735 217.68C152.735 216.357 152.906 215.163 153.247 214.096C153.61 213.008 154.122 212.091 154.783 211.344C155.445 210.576 156.245 209.989 157.183 209.584C158.122 209.179 159.189 208.976 160.383 208.976C161.599 208.976 162.666 209.189 163.583 209.616C164.522 210.043 165.301 210.64 165.919 211.408C166.538 212.155 166.997 213.029 167.295 214.032C167.615 215.035 167.775 216.112 167.775 217.264V218.576H156.351V219.12C156.351 220.4 156.725 221.456 157.471 222.288C158.239 223.099 159.327 223.504 160.735 223.504C161.759 223.504 162.623 223.28 163.327 222.832C164.031 222.384 164.629 221.776 165.119 221.008L167.167 223.024C166.549 224.048 165.653 224.869 164.479 225.488C163.306 226.085 161.941 226.384 160.383 226.384ZM160.383 211.696C159.786 211.696 159.231 211.803 158.719 212.016C158.229 212.229 157.802 212.528 157.439 212.912C157.098 213.296 156.831 213.755 156.639 214.288C156.447 214.821 156.351 215.408 156.351 216.048V216.272H164.095V215.952C164.095 214.672 163.765 213.648 163.103 212.88C162.442 212.091 161.535 211.696 160.383 211.696ZM179.199 209.36H182.687V212.112H182.847C183.21 211.109 183.796 210.341 184.607 209.808C185.439 209.253 186.41 208.976 187.519 208.976C189.631 208.976 191.263 209.744 192.415 211.28C193.567 212.795 194.143 214.928 194.143 217.68C194.143 220.432 193.567 222.576 192.415 224.112C191.263 225.627 189.631 226.384 187.519 226.384C186.41 226.384 185.439 226.107 184.607 225.552C183.796 224.997 183.21 224.229 182.847 223.248H182.687V232.4H179.199V209.36ZM186.463 223.376C187.679 223.376 188.65 222.992 189.375 222.224C190.1 221.435 190.463 220.4 190.463 219.12V216.24C190.463 214.96 190.1 213.936 189.375 213.168C188.65 212.379 187.679 211.984 186.463 211.984C185.396 211.984 184.5 212.251 183.775 212.784C183.05 213.296 182.687 213.979 182.687 214.832V220.528C182.687 221.381 183.05 222.075 183.775 222.608C184.5 223.12 185.396 223.376 186.463 223.376ZM201.689 226C200.494 226 199.598 225.701 199.001 225.104C198.425 224.485 198.137 223.632 198.137 222.544V202.32H201.625V223.152H203.929V226H201.689ZM213.79 226.384C212.595 226.384 211.528 226.181 210.59 225.776C209.651 225.371 208.851 224.795 208.19 224.048C207.528 223.28 207.016 222.363 206.654 221.296C206.312 220.208 206.142 219.003 206.142 217.68C206.142 216.357 206.312 215.163 206.654 214.096C207.016 213.008 207.528 212.091 208.19 211.344C208.851 210.576 209.651 209.989 210.59 209.584C211.528 209.179 212.595 208.976 213.79 208.976C215.006 208.976 216.072 209.189 216.99 209.616C217.928 210.043 218.707 210.64 219.326 211.408C219.944 212.155 220.403 213.029 220.702 214.032C221.022 215.035 221.182 216.112 221.182 217.264V218.576H209.758V219.12C209.758 220.4 210.131 221.456 210.878 222.288C211.646 223.099 212.734 223.504 214.142 223.504C215.166 223.504 216.03 223.28 216.734 222.832C217.438 222.384 218.035 221.776 218.526 221.008L220.574 223.024C219.955 224.048 219.059 224.869 217.886 225.488C216.712 226.085 215.347 226.384 213.79 226.384ZM213.79 211.696C213.192 211.696 212.638 211.803 212.126 212.016C211.635 212.229 211.208 212.528 210.846 212.912C210.504 213.296 210.238 213.755 210.046 214.288C209.854 214.821 209.758 215.408 209.758 216.048V216.272H217.502V215.952C217.502 214.672 217.171 213.648 216.51 212.88C215.848 212.091 214.942 211.696 213.79 211.696ZM237.235 226C236.318 226 235.614 225.744 235.123 225.232C234.632 224.699 234.334 224.027 234.227 223.216H234.067C233.747 224.261 233.16 225.051 232.307 225.584C231.454 226.117 230.419 226.384 229.203 226.384C227.475 226.384 226.142 225.936 225.203 225.04C224.286 224.144 223.827 222.939 223.827 221.424C223.827 219.76 224.424 218.512 225.619 217.68C226.835 216.848 228.606 216.432 230.931 216.432H233.939V215.024C233.939 214 233.662 213.211 233.107 212.656C232.552 212.101 231.688 211.824 230.515 211.824C229.534 211.824 228.734 212.037 228.115 212.464C227.496 212.891 226.974 213.435 226.547 214.096L224.467 212.208C225.022 211.269 225.8 210.501 226.803 209.904C227.806 209.285 229.118 208.976 230.739 208.976C232.894 208.976 234.547 209.477 235.699 210.48C236.851 211.483 237.427 212.923 237.427 214.8V223.152H239.187V226H237.235ZM230.195 223.728C231.283 223.728 232.179 223.493 232.883 223.024C233.587 222.533 233.939 221.883 233.939 221.072V218.672H230.995C228.584 218.672 227.379 219.419 227.379 220.912V221.488C227.379 222.235 227.624 222.8 228.115 223.184C228.627 223.547 229.32 223.728 230.195 223.728ZM247.885 226.384C246.307 226.384 244.984 226.107 243.917 225.552C242.851 224.997 241.923 224.229 241.133 223.248L243.373 221.2C243.992 221.947 244.675 222.533 245.421 222.96C246.189 223.365 247.075 223.568 248.077 223.568C249.101 223.568 249.859 223.376 250.349 222.992C250.861 222.587 251.117 222.032 251.117 221.328C251.117 220.795 250.936 220.347 250.573 219.984C250.232 219.6 249.624 219.355 248.749 219.248L247.213 219.056C245.507 218.843 244.163 218.352 243.181 217.584C242.221 216.795 241.741 215.632 241.741 214.096C241.741 213.285 241.891 212.571 242.189 211.952C242.488 211.312 242.904 210.779 243.437 210.352C243.992 209.904 244.643 209.563 245.389 209.328C246.157 209.093 247 208.976 247.917 208.976C249.411 208.976 250.627 209.211 251.565 209.68C252.525 210.149 253.379 210.8 254.125 211.632L251.981 213.68C251.555 213.168 250.989 212.731 250.285 212.368C249.603 211.984 248.813 211.792 247.917 211.792C246.957 211.792 246.243 211.984 245.773 212.368C245.325 212.752 245.101 213.253 245.101 213.872C245.101 214.512 245.304 214.992 245.709 215.312C246.115 215.632 246.765 215.867 247.661 216.016L249.197 216.208C251.032 216.485 252.365 217.029 253.197 217.84C254.051 218.629 254.477 219.696 254.477 221.04C254.477 221.851 254.317 222.587 253.997 223.248C253.699 223.888 253.261 224.443 252.685 224.912C252.109 225.381 251.416 225.744 250.605 226C249.795 226.256 248.888 226.384 247.885 226.384ZM264.946 226.384C263.751 226.384 262.685 226.181 261.746 225.776C260.807 225.371 260.007 224.795 259.346 224.048C258.685 223.28 258.173 222.363 257.81 221.296C257.469 220.208 257.298 219.003 257.298 217.68C257.298 216.357 257.469 215.163 257.81 214.096C258.173 213.008 258.685 212.091 259.346 211.344C260.007 210.576 260.807 209.989 261.746 209.584C262.685 209.179 263.751 208.976 264.946 208.976C266.162 208.976 267.229 209.189 268.146 209.616C269.085 210.043 269.863 210.64 270.482 211.408C271.101 212.155 271.559 213.029 271.858 214.032C272.178 215.035 272.338 216.112 272.338 217.264V218.576H260.914V219.12C260.914 220.4 261.287 221.456 262.034 222.288C262.802 223.099 263.89 223.504 265.298 223.504C266.322 223.504 267.186 223.28 267.89 222.832C268.594 222.384 269.191 221.776 269.682 221.008L271.73 223.024C271.111 224.048 270.215 224.869 269.042 225.488C267.869 226.085 266.503 226.384 264.946 226.384ZM264.946 211.696C264.349 211.696 263.794 211.803 263.282 212.016C262.791 212.229 262.365 212.528 262.002 212.912C261.661 213.296 261.394 213.755 261.202 214.288C261.01 214.821 260.914 215.408 260.914 216.048V216.272H268.658V215.952C268.658 214.672 268.327 213.648 267.666 212.88C267.005 212.091 266.098 211.696 264.946 211.696ZM287.314 226C286.119 226 285.223 225.701 284.626 225.104C284.05 224.485 283.762 223.632 283.762 222.544V202.32H287.25V223.152H289.554V226H287.314ZM299.415 226.384C298.263 226.384 297.207 226.181 296.247 225.776C295.308 225.371 294.508 224.795 293.847 224.048C293.185 223.28 292.673 222.363 292.311 221.296C291.948 220.208 291.767 219.003 291.767 217.68C291.767 216.357 291.948 215.163 292.311 214.096C292.673 213.008 293.185 212.091 293.847 211.344C294.508 210.576 295.308 209.989 296.247 209.584C297.207 209.179 298.263 208.976 299.415 208.976C300.567 208.976 301.612 209.179 302.551 209.584C303.511 209.989 304.321 210.576 304.983 211.344C305.644 212.091 306.156 213.008 306.519 214.096C306.881 215.163 307.063 216.357 307.063 217.68C307.063 219.003 306.881 220.208 306.519 221.296C306.156 222.363 305.644 223.28 304.983 224.048C304.321 224.795 303.511 225.371 302.551 225.776C301.612 226.181 300.567 226.384 299.415 226.384ZM299.415 223.504C300.609 223.504 301.569 223.141 302.295 222.416C303.02 221.669 303.383 220.56 303.383 219.088V216.272C303.383 214.8 303.02 213.701 302.295 212.976C301.569 212.229 300.609 211.856 299.415 211.856C298.22 211.856 297.26 212.229 296.535 212.976C295.809 213.701 295.447 214.8 295.447 216.272V219.088C295.447 220.56 295.809 221.669 296.535 222.416C297.26 223.141 298.22 223.504 299.415 223.504ZM325.541 227.568C325.541 229.296 324.88 230.597 323.557 231.472C322.234 232.347 320.08 232.784 317.093 232.784C315.728 232.784 314.565 232.688 313.605 232.496C312.666 232.325 311.888 232.069 311.269 231.728C310.672 231.387 310.234 230.971 309.957 230.48C309.68 229.989 309.541 229.424 309.541 228.784C309.541 227.867 309.786 227.152 310.277 226.64C310.789 226.128 311.493 225.776 312.389 225.584V225.232C311.13 224.827 310.501 223.973 310.501 222.672C310.501 221.819 310.789 221.168 311.365 220.72C311.941 220.251 312.634 219.92 313.445 219.728V219.6C312.464 219.131 311.706 218.48 311.173 217.648C310.661 216.795 310.405 215.803 310.405 214.672C310.405 212.965 310.97 211.589 312.101 210.544C313.253 209.499 314.896 208.976 317.029 208.976C318.202 208.976 319.205 209.147 320.037 209.488V209.04C320.037 208.293 320.208 207.717 320.549 207.312C320.912 206.885 321.466 206.672 322.213 206.672H324.773V209.488H321.381V210.16C322.128 210.651 322.704 211.291 323.109 212.08C323.514 212.848 323.717 213.712 323.717 214.672C323.717 216.357 323.141 217.723 321.989 218.768C320.837 219.792 319.194 220.304 317.061 220.304C316.25 220.304 315.525 220.219 314.885 220.048C314.458 220.197 314.085 220.411 313.765 220.688C313.445 220.944 313.285 221.285 313.285 221.712C313.285 222.16 313.488 222.48 313.893 222.672C314.298 222.864 314.874 222.96 315.621 222.96H319.717C321.765 222.96 323.248 223.376 324.165 224.208C325.082 225.019 325.541 226.139 325.541 227.568ZM322.277 227.952C322.277 227.376 322.053 226.917 321.605 226.576C321.178 226.235 320.389 226.064 319.237 226.064H313.605C312.837 226.512 312.453 227.152 312.453 227.984C312.453 228.667 312.72 229.211 313.253 229.616C313.808 230.043 314.736 230.256 316.037 230.256H318.213C320.922 230.256 322.277 229.488 322.277 227.952ZM317.061 217.776C318.085 217.776 318.874 217.552 319.429 217.104C320.005 216.635 320.293 215.92 320.293 214.96V214.32C320.293 213.36 320.005 212.656 319.429 212.208C318.874 211.739 318.085 211.504 317.061 211.504C316.037 211.504 315.237 211.739 314.661 212.208C314.106 212.656 313.829 213.36 313.829 214.32V214.96C313.829 215.92 314.106 216.635 314.661 217.104C315.237 217.552 316.037 217.776 317.061 217.776ZM329.897 206.384C329.171 206.384 328.638 206.213 328.297 205.872C327.977 205.531 327.817 205.093 327.817 204.56V204.016C327.817 203.483 327.977 203.045 328.297 202.704C328.638 202.363 329.171 202.192 329.897 202.192C330.622 202.192 331.145 202.363 331.465 202.704C331.785 203.045 331.945 203.483 331.945 204.016V204.56C331.945 205.093 331.785 205.531 331.465 205.872C331.145 206.213 330.622 206.384 329.897 206.384ZM328.137 209.36H331.625V226H328.137V209.36ZM336.605 226V209.36H340.093V212.112H340.253C340.616 211.216 341.16 210.469 341.885 209.872C342.632 209.275 343.645 208.976 344.925 208.976C346.632 208.976 347.955 209.541 348.893 210.672C349.853 211.781 350.333 213.371 350.333 215.44V226H346.845V215.888C346.845 213.285 345.8 211.984 343.709 211.984C343.261 211.984 342.813 212.048 342.365 212.176C341.939 212.283 341.555 212.453 341.213 212.688C340.872 212.923 340.595 213.221 340.381 213.584C340.189 213.947 340.093 214.373 340.093 214.864V226H336.605Z" fill="#282828"/>
<defs>
<clipPath id="clip0_0_1">
<rect width="37.9306" height="39.6796" fill="white" transform="translate(62)"/>
</clipPath>
<clipPath id="clip1_0_1">
<path d="M61.1255 0H100.805V39.6796H61.1255V0Z" fill="white"/>
</clipPath>
</defs>
</svg>
